[img]http://img31.imageshack.us/img31/5091/poster1bj.jpg[/img]


[i][B]Aka: Mow suet tsi siu leen hung
Year: 2008
Directed: Antony Szeto
Genre: Action
Runtime: 01:38:11
Country: Hong Kong
Language: Mandarin
Subtitles: English
Cast: Sammo Hung Kam-Bo, Fengchao Liu, Wenjie Wang, Xiaofei Wang, Yongchen Liu, Yachao Wang, Junjie Mao, Dong Wei, Zhicheng Liang
Imdb: http://www.imdb.com/title/tt0790786/

Plot:

Wushu tells the story of Li Er - a talented teenage sanda fighter (Chinese kickboxing) who falls in love with a beautiful girl training in wushu (a martial arts form practiced by international action star, Jet Li). In order to woo her, Li Er goes against his coachâ™s desire to make him the provincial sanda champion, and takes up wushu instead. Li Er struggles with losing his sanda champion status to becoming a no body in wushu competition, while at the same time he tries to get his girl to notice him and not getting kicked out of school for his poor marks.


General Info:
Complete name : Wushu.2008.DVDrip.H264.AAC-D34dLy.mp4
Format : MPEG-4
Format profile : Base Media
Codec ID : isom
File size : 351 MiB
Duration : 1h 38mn
Overall bit rate : 499 Kbps

Video Info:
ID : 1
Format : AVC
Format/Info : Advanced Video Codec
Format profile : High@L3.2
Format settings, CABAC : Yes
Format settings, ReFrames : 3 frames
Format_Settings_GOP : M=8, N=9
Codec ID : avc1
Codec ID/Info : Advanced Video Coding
Duration : 1h 38mn
Bit rate mode : Variable
Bit rate : 450 Kbps
Maximum bit rate : 6 488 Kbps
Width : 848 pixels
Height : 372 pixels
Display aspect ratio : 2.25:1
Frame rate mode : Constant
Frame rate : 23.976 fps
Resolution : 8 bits
Colorimetry : 4:2:0
Scan type : Progressive
Bits/(Pixel*Frame) : 0.059
Stream size : 315 MiB (90%)
Title : Imported with GPAC 0.4.6-DEV (build 1)
Writing library : x264 core 80 r1376M 3feaec2

Audio Info:
ID : 2
Format : AAC
Format/Info : Advanced Audio Codec
Format version : Version 4
Format profile : LC
Format settings, SBR : Yes
Format settings, PS : No
Codec ID : 40
Duration : 1h 38mn
Bit rate mode : Variable
Bit rate : 48.0 Kbps
Maximum bit rate : 87.5 Kbps
Channel(s) : 2 channels
Channel positions : Front: L R
Sampling rate : 48.0 KHz
Stream size : 33.8 MiB (10%)

[/i][/B]


[img]http://img64.imageshack.us/img64/6594/21101826.jpg[/img]

[img]http://img130.imageshack.us/img130/218/44966561.jpg[/img]

[img]http://img340.imageshack.us/img340/2122/aaasdi.jpg[/img]

[img]http://img715.imageshack.us/img715/4286/aaaao.jpg[/img]

[img]http://img441.imageshack.us/img441/7752/aaaaaix.jpg[/img]

[img]http://img155.imageshack.us/img155/4683/wushu2008dvdrip1.jpg[/img]


